<svg width="24" height="24" viewBox="0 0 24 24" fill="none" xmlns="http://www.w3.org/2000/svg">
<path fill-rule="evenodd" clip-rule="evenodd" d="M22.5008 21.4426L16.8383 15.7501C19.6503 12.3572 19.2994 7.35339 16.0414 4.38616C12.7835 1.41893 7.76871 1.53597 4.65271 4.65198C1.53671 7.76798 1.41966 12.7827 4.38689 16.0407C7.35412 19.2987 12.3579 19.6496 15.7508 16.8376L21.4433 22.5001L22.5008 21.4426ZM3.75082 10.5001C3.75082 6.77217 6.7729 3.75009 10.5008 3.75009C14.2287 3.75009 17.2508 6.77217 17.2508 10.5001C17.2508 14.228 14.2287 17.2501 10.5008 17.2501C6.7729 17.2501 3.75082 14.228 3.75082 10.5001Z" fill="#070707"/>
</svg>
